<?xml version="1.0" encoding="utf-8"?>
<!-- Generator: Adobe Illustrator 28.5.0, SVG Export Plug-In . SVG Version: 9.03 Build 54727)  -->
<svg version="1.0" id="Ebene_3" xmlns="http://www.w3.org/2000/svg" xmlns:xlink="http://www.w3.org/1999/xlink" x="0px" y="0px"
	 width="2000px" height="640px" viewBox="0 0 2000 640" enable-background="new 0 0 2000 640" xml:space="preserve">
<g id="Icicles">
	<path d="M1017.218,385.255c-4.646,0.224-8.198,3.597-7.933,7.534l0.036,0.541c-1.662-3.882-5.534-6.592-9.902-6.303
		c-4.861,0.287-8.725,4.057-9.472,8.833c-1.522-0.877-4.507-1.467-7.842-1.398c-4.646,0.085-8.198,1.368-7.933,2.866l8.413,47.565
		l7.486-42.327l9.928,180.242l9.935-180.37l7.764,115.402l8.413-125.051C1026.423,388.57,1022.202,384.985,1017.218,385.255z"/>
	<path d="M448.586,415.294c-4.646,0.224-8.198,3.597-7.933,7.534l8.413,125.051l8.413-125.051
		C457.791,418.609,453.57,415.024,448.586,415.294z"/>
	<path d="M264.74,405.532c-4.646,0.271-8.198,4.341-7.933,9.09l8.413,150.889l8.413-150.889
		C273.944,409.532,269.723,405.207,264.74,405.532z"/>
	<path d="M753.116,359.044c-4.646,0.224-8.198,3.597-7.933,7.534l8.413,125.051l8.413-125.051
		C762.321,362.359,758.1,358.775,753.116,359.044z"/>
	<path d="M624.963,299.874c-4.646,0.159-8.198,2.549-7.933,5.339l8.413,88.615l8.413-88.615
		C634.167,302.223,629.946,299.683,624.963,299.874z"/>
	<path d="M784.002,428.409c-4.646,0.159-8.198,2.549-7.933,5.339l8.413,88.615l8.413-88.615
		C793.207,430.759,788.986,428.219,784.002,428.409z"/>
	<path d="M651.26,444.523c-4.646,0.166-8.198,2.662-7.933,5.574l8.413,92.525l8.413-92.525
		C660.465,446.977,656.244,444.324,651.26,444.523z"/>
	<path d="M926.884,459.442c-4.646,0.172-8.198,2.765-7.933,5.79l8.413,96.111l8.413-96.111
		C936.089,461.99,931.868,459.235,926.884,459.442z"/>
	<path d="M189.731,439.978c-4.646,0.172-8.198,2.765-7.933,5.79l8.413,96.111l8.413-96.111
		C198.936,442.526,194.715,439.771,189.731,439.978z"/>
	<path d="M304.438,509.783c-4.646,0.172-8.198,2.765-7.933,5.79l8.413,96.926l8.413-96.926
		C313.643,512.331,309.422,509.576,304.438,509.783z"/>
	<path d="M44.958,407.251c-4.646,0.195-8.198,3.123-7.933,6.539l8.413,108.548l8.413-108.548
		C54.163,410.129,49.942,407.017,44.958,407.251z"/>
	<path d="M565.751,359.885c-4.094,0.121-7.224,1.946-6.991,4.075l7.414,67.633l7.414-67.633
		C573.863,361.679,570.143,359.74,565.751,359.885z"/>
	<path d="M504.07,482.625c-4.094,0.121-7.224,1.946-6.991,4.075l7.414,67.633l7.414-67.633
		C512.182,484.418,508.462,482.479,504.07,482.625z"/>
	<path d="M899.06,479.57c-4.646,0.085-8.198,1.368-7.933,2.866l8.413,47.565l8.413-47.565
		C908.265,480.831,904.044,479.468,899.06,479.57z"/>
	<path d="M326.159,513.119c-4.646,0.085-8.198,1.368-7.933,2.866l8.413,47.565l8.413-47.565
		C335.364,514.38,331.143,513.017,326.159,513.119z"/>
	<path d="M68.295,443.903c-3.844,0.085-6.782,1.368-6.563,2.866l6.96,47.565l6.96-47.565C75.91,445.164,72.418,443.8,68.295,443.903
		z"/>
	<path d="M417.906,402.795c-4.646,0.085-8.198,1.368-7.933,2.866l8.413,47.565l8.413-47.565
		C427.111,404.057,422.89,402.693,417.906,402.795z"/>
	<path d="M613.165,499.295c-3.552,0.103-6.268,1.656-6.065,3.468l6.432,57.559l6.432-57.559
		C620.203,500.821,616.975,499.171,613.165,499.295z"/>
	<path d="M244.868,422.179c-3.552,0.085-6.268,1.368-6.065,2.866l6.432,47.565l6.432-47.565
		C251.906,423.44,248.678,422.076,244.868,422.179z"/>
	<path d="M110.864,497.555c-3.126,0.075-5.516,1.204-5.338,2.522l5.661,41.864l5.661-41.864
		C117.057,498.665,114.217,497.465,110.864,497.555z"/>
	<path d="M343.845,414.005c-3.126,0.075-5.516,1.204-5.338,2.522l5.661,41.864l5.661-41.864
		C350.039,415.115,347.199,413.915,343.845,414.005z"/>
	<path d="M686.514,315.667c-4.646,0.085-8.198,1.368-7.933,2.866l8.413,47.565l8.413-47.565
		C695.719,316.928,691.498,315.564,686.514,315.667z"/>
	<path d="M1551.414,415.294c-4.984-0.269-9.205,3.315-8.892,7.534l8.413,125.051l8.413-125.051
		C1559.612,418.891,1556.06,415.518,1551.414,415.294z"/>
	<path d="M1735.26,405.532c-4.984-0.325-9.205,4-8.892,9.09l8.413,150.889l8.413-150.889
		C1743.458,409.872,1739.907,405.802,1735.26,405.532z"/>
	<path d="M1246.884,359.044c-4.984-0.269-9.205,3.315-8.892,7.534l8.413,125.051l8.413-125.051
		C1255.082,362.641,1251.53,359.268,1246.884,359.044z"/>
	<path d="M1375.037,299.874c-4.984-0.191-9.205,2.349-8.892,5.339l8.413,88.615l8.413-88.615
		C1383.236,302.423,1379.684,300.033,1375.037,299.874z"/>
	<path d="M1215.998,428.409c-4.984-0.191-9.205,2.349-8.892,5.339l8.413,88.615l8.413-88.615
		C1224.196,430.959,1220.644,428.568,1215.998,428.409z"/>
	<path d="M1348.74,444.523c-4.984-0.199-9.205,2.453-8.892,5.574l8.413,92.525l8.413-92.525
		C1356.938,447.185,1353.386,444.69,1348.74,444.523z"/>
	<path d="M1073.116,459.442c-4.984-0.207-9.205,2.548-8.892,5.79l8.413,96.111l8.413-96.111
		C1081.314,462.207,1077.762,459.614,1073.116,459.442z"/>
	<path d="M1810.269,439.978c-4.984-0.207-9.205,2.548-8.892,5.79l8.413,96.111l8.413-96.111
		C1818.467,442.743,1814.915,440.151,1810.269,439.978z"/>
	<path d="M1695.562,509.783c-4.984-0.207-9.205,2.548-8.892,5.79l8.413,96.926l8.413-96.926
		C1703.76,512.548,1700.208,509.956,1695.562,509.783z"/>
	<path d="M1955.042,407.251c-4.984-0.234-9.205,2.878-8.892,6.539l8.413,108.548l8.413-108.548
		C1963.24,410.374,1959.688,407.446,1955.042,407.251z"/>
	<path d="M1438.608,350.887c-4.392-0.146-8.111,1.793-7.836,4.075l7.413,67.633l7.413-67.633
		C1445.832,352.833,1442.702,351.009,1438.608,350.887z"/>
	<path d="M1495.93,482.625c-4.392-0.146-8.111,1.793-7.836,4.075l7.413,67.633l7.413-67.633
		C1503.154,484.57,1500.024,482.746,1495.93,482.625z"/>
	<path d="M1100.94,479.57c-4.984-0.102-9.205,1.261-8.892,2.866l8.413,47.565l8.413-47.565
		C1109.138,480.938,1105.586,479.655,1100.94,479.57z"/>
	<path d="M1673.841,513.119c-4.984-0.102-9.205,1.261-8.892,2.866l8.413,47.565l8.413-47.565
		C1682.039,514.487,1678.487,513.205,1673.841,513.119z"/>
	<path d="M1931.705,443.903c-4.123-0.102-7.615,1.261-7.357,2.866l6.96,47.565l6.96-47.565
		C1938.488,445.271,1935.549,443.988,1931.705,443.903z"/>
	<path d="M1582.094,402.795c-4.984-0.102-9.205,1.261-8.892,2.866l8.413,47.565l8.413-47.565
		C1590.292,404.164,1586.74,402.881,1582.094,402.795z"/>
	<path d="M1386.835,499.295c-3.81-0.124-7.037,1.526-6.799,3.468l6.432,57.559l6.432-57.559
		C1393.103,500.951,1390.387,499.399,1386.835,499.295z"/>
	<path d="M1755.132,422.179c-3.81-0.102-7.037,1.261-6.798,2.866l6.432,47.565l6.432-47.565
		C1761.4,423.547,1758.684,422.264,1755.132,422.179z"/>
	<path d="M1889.136,497.555c-3.354-0.09-6.194,1.11-5.984,2.522l5.661,41.864l5.661-41.864
		C1894.653,498.76,1892.263,497.63,1889.136,497.555z"/>
	<path d="M1656.155,408.841c-3.354-0.09-6.194,1.11-5.984,2.522l5.661,41.864l5.661-41.864
		C1661.671,410.045,1659.281,408.916,1656.155,408.841z"/>
	<path d="M1313.486,315.667c-4.984-0.102-9.205,1.261-8.892,2.866l8.413,47.565l8.413-47.565
		C1321.684,317.035,1318.132,315.752,1313.486,315.667z"/>
</g>
<g id="Swirl_L">
	<path d="M289.445,339.579c-0.541,9.699-0.028,16.91,1.032,22.285C464.372,392.016,564.186,565.968,725,485
		C573.877,545.695,457.479,370.485,289.445,339.579z"/>
	<path d="M327.5,490c-116.969,2.612-216.64-26.49-217.5-65c0-27.524,42.211-58.161,101.853-65.733
		c3.96-7.192,7.698-15.061,11.181-23.821C139.406,339.613,40.802,370.907,40,335c0,0-12.5,17.029-12.5,40
		c0,67.536,78.456,142.5,302.5,142.5c59.292,0,130.866-16.663,202.174-35.011c-11.461-5.736-22.872-12.013-34.302-18.586
		C444.732,477.756,388.295,488.642,327.5,490z"/>
	<path d="M782.5,397.5c-76.225,0-156.091,29.687-244.989,55.451c12.535,6.804,24.996,13.022,37.478,18.406
		C647.41,452.486,716.912,435,770,435c111.897,0,93.886,57.5,60,57.5c-28.188,0-30-7.5-30-7.5s4.23,20,50,20
		c49.06,0,63.227-39.942,105-45C932.081,423.353,846.516,397.5,782.5,397.5z"/>
</g>
<g id="Swirl_R">
	<path d="M1710.555,339.579C1542.52,370.485,1426.123,545.695,1275,485c160.814,80.968,260.628-92.984,434.523-123.136
		C1710.583,356.489,1711.095,349.277,1710.555,339.579z"/>
	<path d="M1230,435c53.088,0,122.59,17.486,195.011,36.357c12.481-5.384,24.943-11.602,37.478-18.406
		c-88.898-25.764-168.764-55.451-244.989-55.451c-64.016,0-149.581,25.853-172.5,62.5c41.773,5.058,55.94,45,105,45
		c45.77,0,50-20,50-20s-1.812,7.5-30,7.5C1136.114,492.5,1118.103,435,1230,435z"/>
	<path d="M1960,335c-0.802,35.897-99.346,4.632-182.958,0.45c3.493,8.765,7.24,16.636,11.21,23.83
		C1847.838,366.875,1890,397.492,1890,425c-0.86,38.51-100.531,67.612-217.5,65c-60.795-1.358-117.232-12.244-170.373-26.097
		c-11.43,6.573-22.842,12.849-34.303,18.586C1539.133,500.837,1610.708,517.5,1670,517.5c224.044,0,302.5-74.964,302.5-142.5
		C1972.5,352.029,1960,335,1960,335z"/>
</g>
<g id="FROSTROOK">
	<path id="K" d="M1687.159,426.742c-21.314,0-42.604-14.551-62.841-31.174c10.926-4.99,22.085-9.589,33.546-13.646
		C1666.007,408.327,1675.723,421.96,1687.159,426.742z M1859.713,452.134c-43.124-48.198-83.469-68.244-104.072-168.01
		c-5.228-25.867-17.016-30.441-17.016-30.441l67.343-21.176h-120.894c50.598-23.623,65.312-78.103,65.312-78.103
		c74.395-3.737,78.203-55.413,78.203-55.413s-17.883,30.192-90.407,30.192h-42.48l2.053,15.233
		c4.638,34.419-13.232,77.568-64.905,77.568l-6.857-57.114c-4.339-36.139,20.597-40.745,20.597-40.745S1536.066,104.562,1502,27.5
		c6.642,50.151,40.275,86.922,62.423,103.666c11.538,8.723,19.115,21.721,20.659,35.511l0.486,4.344
		c-22.8-11.834-40.897-0.392-42.775,9.3c5.421-7.396,42.703-9.94,47.307,31.184c1.656,14.794-8.354,18.368-8.354,18.368
		s10.86,4.016,12.481,18.5c8.708,77.776-43.265,74.601-55.09,102.801c16.637-10.545,37.016,3.703,59.465,22.565
		c16.738-8.707,33.846-16.682,51.478-23.427c-3.034-15.229-5.79-33.037-8.277-53.75l-5.786-48.189h37.873
		c17.31,0,33.25,14.29,35.618,32.026l5.783,43.326c10.611,79.489-31.113,57.976-31.113,57.976
		c27.298,43.415,86.609,45.77,148.155,82.256C1842.962,460.345,1852.158,456.358,1859.713,452.134z M1921.335,551.683
		c-15.438-24.131-31.805-42.947-48.491-57.992c4.996-1.926,9.834-3.947,14.525-6.057
		C1898.851,504.775,1910.277,525.464,1921.335,551.683z"/>
	<path id="OO" d="M1567.941,239.106c-0.585,0.072-1.183,0.107-1.787,0.107c-20.313,0-50.52-39.582-68.231-68.258
		c-24.759-40.086-44.155-82.817-75.959-89.409c19.857,29.796-8.46,66.332-37.129,109.231c-2.042-2.332-3.971-4.569-5.755-6.632
		c-29.096-33.656-49.766-75.298-69.356-77.639c29.405,36.411-60.812,86.548-85.327,147.178
		c61.005,16.617,100.43,119.657,136.056,119.657c-21.354-12.294-3.51-47.467,29.138-74.307
		c45.314,46.767,65.777,125.44,98.975,125.44c1.601,0,3.222-0.184,4.882-0.568C1441.278,376.503,1563.405,287.952,1567.941,239.106z
		 M1343.317,278.116l0-0.001c-13.954,13.041-31.266,14.591-43.46,2.417c-8.946-10.071-18.587-19.767-29.067-28.048
		c20.066-30.958,52.091-58.815,68.425-83.087c6.867,9.509,14.422,19.642,22.688,29.268l0.934,1.088
		c5.033,5.865,18.276,20.355,18.276,20.355S1375.748,245.188,1343.317,278.116z M1470.73,294.476
		c-14.898,16.602-36.834,15.984-52.106-1.47c-8-9.61-23.907-27.359-23.907-27.359c14.581-43.014,54.031-74.749,67.731-106.018
		c0.39,0.67,0.781,1.34,1.171,2.009c4.029,6.917,8.206,14.089,12.587,21.247c6.589,10.767,20.11,31.589,36.289,49.46
		c0.165,0.182,0.328,0.354,0.493,0.534c-4.562,22.318-23.913,40.806-42.25,61.588
		C1470.735,294.471,1470.732,294.473,1470.73,294.476z"/>
	<path id="R_00000181087035221589417480000011326964949572867713_" d="M1184.123,248.28c26.38-17.874,54.429-33.215,52.141-83.409
		c-1.909-41.861-18.221-65.88-18.221-65.88s-3.613,45.425-62.32,45.425h-12.524c-25.963,0-38.355-5.088-56.385-5.088
		s-25.453,10.186-25.453,10.186s17.871-4.21,18.309,25.646l0.457,31.121c1.609,109.532-14.079,125.648-14.079,125.648
		c15.081,11.919,17.675,38.855,43.561,55.36c-5.01-13.277,19.404-25.056,66.244-25.056c0,0-19.601-11.183-35.875-46.672
		c2-24.145,11.155-39.289,23.095-50.85c26.617,6.271,56.042,39.738,44.815,97.522c53.294,0,63.599,43.729,116.602,31.269
		C1282.089,392.19,1275.894,291.938,1184.123,248.28z M1119.101,211.504l-0.868-38.921c0,0,6.021-7.713,30.663-7.713h10.278
		c12.091,0,23.819,4.78,24.299,18.464c1.439,41.036-42.573,50.312-55.285,98.613
		C1123.214,262.786,1119.726,239.537,1119.101,211.504z"/>
	<path id="T" d="M1100,95h-56.25l-3.75,11.25V45c0,0-3.858,3.62-10.625,7.302V78.75c0,3.452-2.798,6.25-6.25,6.25
		s-6.25-2.798-6.25-6.25V57.509c-3.267,0.971-6.819,1.735-10.625,2.148V78.75c0,3.452-2.798,6.25-6.25,6.25s-6.25-2.798-6.25-6.25
		V59.657c-3.806-0.413-7.358-1.177-10.625-2.148V78.75c0,3.452-2.798,6.25-6.25,6.25s-6.25-2.798-6.25-6.25V52.302
		C963.858,48.62,960,45,960,45v61.25L956.25,95H900c-31.928,0-50-20-50-20c16.619,42.145,31.513,28.16,50,50c0,0,5.089-10,20-10
		h37.5h21.25l-20.581,3.632c1.493,4.259,5.209,8.227,8.082,10.818c0.841,0.758,1.906,1.211,3.036,1.285L988.75,132l-19.896,2.224
		c-0.887,0.099-1.731,0.434-2.445,0.969L960,140l21.25,1.375l-19.525,2.071C965.666,152.207,975,178.399,975,230
		c0,71.132-25,115-25,115l-0.816,1.26c10.823,6.919,23.101,11.847,35.816,13.619c-3.971-0.187-7.94-0.676-11.869-1.443
		c-10.597-2.259-20.766-6.111-30.128-11.602c-1.331-0.78-3.002,0.179-3.002,1.722v8.758c12.434,10.639,29.024,15.49,45,17.822
		c-4.166-0.273-8.349-0.596-12.491-1.279c-11.862-1.896-23.651-5.385-33.682-12.215L927.5,377.5c0,0,22.304,22.5,72.5,22.5
		c50.196,0,72.5-22.5,72.5-22.5l-11.327-15.857c-10.031,6.83-21.82,10.319-33.682,12.215c-4.143,0.683-8.326,1.007-12.491,1.279
		c15.976-2.332,32.566-7.182,45-17.822v-8.758c0-1.543-1.672-2.502-3.002-1.722c-9.362,5.491-19.531,9.343-30.128,11.602
		c-3.93,0.767-7.899,1.256-11.869,1.443c12.716-1.772,24.993-6.701,35.816-13.619L1050,345c0,0-25-43.868-25-115
		c0-51.601,9.334-77.793,13.275-86.554l-19.525-2.071L1040,140l-6.41-4.807c-0.714-0.535-1.558-0.87-2.444-0.969L1011.25,132
		l19.463-1.266c1.13-0.073,2.195-0.527,3.036-1.285c2.873-2.591,6.589-6.559,8.082-10.818L1021.25,115h21.25h37.5
		c14.911,0,20,10,20,10c18.487-21.84,33.381-7.855,50-50C1150,75,1131.928,95,1100,95z M1006.25,295h-12.5v-21.25
		c0-3.452,2.798-6.25,6.25-6.25s6.25,2.798,6.25,6.25V295z M1006.25,202.5h-12.5v-21.25c0-3.452,2.798-6.25,6.25-6.25
		s6.25,2.798,6.25,6.25V202.5z"/>
	<path id="S" d="M933.953,331.929c0,0-10.829-11.144-13.574-78.246c0,0-10.862,7.986-30.124,7.986
		c-28.671,0-59.308-40.613-61.854-43.953c-7.323-9.604-12.376-20.071-11.875-34.38c0.48-13.685,12.207-18.464,24.299-18.464h10.278
		c24.642,0,30.663,7.713,30.663,7.713l-0.868,38.921c-0.535,24.001-11.012,26.28-11.012,26.28
		c30.466,10.551,49.64-7.882,49.987-31.504l0.457-31.121c0.439-29.855,18.309-25.646,18.309-25.646s-7.423-10.186-25.453-10.186
		s-30.422,5.088-56.385,5.088h-12.524c-58.707,0-62.32-45.425-62.32-45.425s-16.312,24.018-18.221,65.88
		c-2.287,50.163,25.726,65.517,52.092,83.376c14.005,9.486,32.282,19.44,44.54,35.871c6.007,8.052,7.091,19,2.779,28.45
		c-2.218,4.861-4.512,9.296-6.826,13.333c-5.049,8.809-14.262,14.259-24.082,14.259h-14.97c-15.78,0-27.348-14.385-24.563-30.403
		c6.709-38.586,21.514-45.421,21.514-45.421s-36.733-1.363-66.209,43.884c-28.771,44.164-44.769,84.424-72.502,85.282
		c53.004,12.46,63.309-31.269,116.602-31.269h32.035c46.841,0,71.254,11.779,66.244,25.056
		C916.278,370.784,918.872,343.848,933.953,331.929z"/>
	<path id="O" d="M775.604,253.683c-24.515-60.629-114.731-110.766-85.327-147.178c-19.591,2.341-40.26,43.984-69.356,77.639
		c-15.475,17.899-41.424,48.506-65.554,48.506c-0.941,0-1.881-0.047-2.814-0.143c5.148,13.481,32.463,46.063,56.524,65.438
		c33.494,26.971,52.117,62.934,30.472,75.395C675.174,373.34,714.599,270.299,775.604,253.683z M700.143,280.532
		c-12.194,12.173-29.506,10.624-43.46-2.417v0.001c-17.933-16.78-39.831-30.05-48.462-47.675
		c11.475-10.341,21.496-22.009,28.944-30.688l0.934-1.088c8.266-9.626,15.821-19.759,22.687-29.268
		c16.333,24.272,48.359,52.128,68.425,83.087C718.73,260.765,709.09,270.461,700.143,280.532z"/>
	<path id="R" d="M376.399,395.904c-19.098,16.314-37.119,30.839-61.558,30.839c15.73-6.239,30.781-20.722,43.885-38.489
		C364.689,390.679,370.578,393.234,376.399,395.904z M607.31,342.908c-57.053,22.287-54.132,75.979-106.272,86.675
		c0,0,29.188-25.126,33.514-75.649c5.618-65.618-18.142-99.317-60.214-100.768c-9.895,7.314-17.812,17.333-22.634,33.552
		c1.841,57.887,19.149,64.456,19.149,64.456c-28.77,0-49.96,10.306-68.057,23.303c-8.846-4.628-17.797-9.048-26.869-13.202
		c12.331-22.227,21.439-45.637,25.509-63.192c2.424-10.452,2.278-20.823-3.919-28.403v0c0,0,11.181-6.194,14.045-31.895
		c4.841-43.433-10.84-41.92-10.84-41.92s38.994-20.075,76.525-66.682c43.575,6.905,57.082-32.831,92.848-42.665
		c-14.343,17.742-6.211,59.602,22.748,65.549c-25.038,60.473-60.67,73.965-90.337,86.443
		C580.35,252.753,576.177,332.185,607.31,342.908z M530.412,162.305c2.99-33.344-68.361-9.512-72.216,27.792l-3.839,37.144
		c-0.873,8.443-1.518,16.321-1.972,23.683C478.863,220.24,525.79,213.851,530.412,162.305z"/>
	<path id="F" d="M127.157,493.691c-16.687,15.044-33.053,33.861-48.492,57.992c11.058-26.22,22.492-46.904,33.986-64.04
		C117.335,489.75,122.168,491.768,127.157,493.691z M380.19,177.739C402.842,165.554,490.371,105.124,498,27.5
		c-17.632,52.404-104.16,101.683-188.502,101.683c-14.273,0-19.117-10.104-19.117-10.104s-9.701,10.104-28.563,10.104
		c-72.524,0-90.407-30.192-90.407-30.192s4.086,55.632,86.765,55.632h5.51l-11.067,77.884h-58.587l67.343,21.176
		c0,0-11.999,1.494-12.478,4.865l-0.493,3.195c-18.781,119.541-61.835,138.832-108.071,190.417
		c7.546,4.214,16.726,8.192,27.332,11.797c61.545-36.487,120.857-38.842,148.155-82.257c0,0-41.724,21.513-31.113-57.976
		l9.385-70.308h25.194c23.932,0,15.575,18.938,15.575,18.938s40.218-30.584,52.915-71.288c0,0-20.336,28.542-50.169,28.542h-40.337
		l3.81-28.542c3.715-27.829,24.437-38.763,24.437-38.763s-11.736-1.068-24.443-7.716c24.508-0.283,47.527-2.414,63.002-4.231
		c11.283-1.325,19.882,7.523,18.311,18.739C381.88,172.713,381.174,175.893,380.19,177.739z"/>
</g>
</svg>
