<svg xmlns="http://www.w3.org/2000/svg" version="1.1" xmlns:xlink="http://www.w3.org/1999/xlink" width="505px" height="640px"><svg version="1.0" id="SvgjsSvg1007" xmlns="http://www.w3.org/2000/svg" xmlns:xlink="http://www.w3.org/1999/xlink" x="0px" y="0px" width="505px" height="640px" viewBox="0 0 505 640" enable-background="new 0 0 505 640" xml:space="preserve">
<g id="SvgjsG1006">
	<path fill="#FFFFFF" d="M172.465,461.61c-0.723,0.473-1.097,1.008-0.988,1.57l9.833,55.596l8.354-47.235L172.465,461.61z"></path>
	<path fill="#FFFFFF" d="M86.569,412.018c-0.343,0.481-0.508,0.994-0.432,1.526L95.97,489.3l8.676-66.845L86.569,412.018z"></path>
	<path fill="#FFFFFF" d="M242.815,502.226c-0.138,0.473-0.196,0.963-0.146,1.464L252.5,612.5l9.835-108.81
		c0.046-0.501-0.016-0.989-0.153-1.461L242.815,502.226z"></path>
	<path fill="#FFFFFF" d="M191.241,472.45c-0.068,0.297-0.099,0.6-0.062,0.909l9.833,90.065l8.764-80.272L191.241,472.45z"></path>
	<path fill="#FFFFFF" d="M445.641,396.308l-19.172,11.069l8.739,49.411l10.613-60.003
		C445.865,396.537,445.794,396.391,445.641,396.308z"></path>
	<path fill="#FFFFFF" d="M355.629,448.277l8.846,81.024l9.833-90.065c0.059-0.544-0.048-1.072-0.295-1.573L355.629,448.277z"></path>
	<path fill="#FFFFFF" d="M346.961,453.281l-16.11,9.301l8.828,49.911l10.306-58.27C350.148,453.302,348.934,453.193,346.961,453.281
		z"></path>
</g>
<g id="SvgjsG1005">
	<path fill="#FFFFFF" d="M307.311,284.402c8.529,37.198,24.13,51.41,24.346,51.6c0.221,0.187,0.415,0.369,0.6,0.56
		c3.835-1.619,8.321-1.262,11.824,0.963c3.401,2.161,5.431,5.793,5.431,9.716v9.807l15.888,17.795
		c1.705,1.91,2.553,4.436,2.345,6.988s-1.455,4.908-3.447,6.516c-1.436,1.159-36.028,28.373-111.798,28.373
		c-75.77,0-110.362-27.214-111.798-28.373c-1.992-1.608-3.239-3.964-3.447-6.516c-0.208-2.552,0.639-5.078,2.345-6.988
		l15.887-17.793v-9.809c0-3.923,2.03-7.555,5.431-9.716c3.505-2.227,7.993-2.581,11.828-0.962c0.212-0.217,0.435-0.425,0.667-0.622
		c0.165-0.146,15.752-14.346,24.277-51.54L27.5,382.661l225,129.904l225-129.904L307.311,284.402z"></path>
</g>
<path id="SvgjsPath1004" fill="#FFFFFF" d="M146.575,381.071c0,0,32.587,26.299,105.925,26.299c73.339,0,105.925-26.299,105.925-26.299
	l-16.548-18.535c-14.656,7.983-31.88,12.061-49.211,14.277c-6.052,0.798-12.164,1.177-18.25,1.495
	c23.341-2.726,47.581-8.395,65.746-20.831v-10.237c0-1.803-2.442-2.924-4.386-2.012c-13.678,6.418-28.536,10.92-44.019,13.561
	c-5.741,0.896-11.54,1.468-17.342,1.686c18.578-2.071,36.516-7.832,52.329-15.919l-1.193-1.473c0,0-33.019-27.898-33.019-111.039
	c0-60.312,10.131-79.239,15.889-89.479l-28.527-2.42l31.047-1.607l-9.364-5.619c-1.043-0.626-2.277-1.017-3.572-1.133l-29.068-2.599
	l28.436-1.479c1.65-0.086,3.207-0.616,4.435-1.501c4.198-3.028,9.627-7.666,11.808-12.645l-30.069-4.245h42.005
	c0,0-14.61-8.778-14.61-23.377V27.5c0,0-5.636,4.231-15.524,8.535v29.087c0,5.043-4.088,9.132-9.132,9.132s-9.132-4.088-9.132-9.132
	V42.121c-4.772,1.135-9.963,2.028-15.524,2.51v20.49c0,5.043-4.088,9.132-9.132,9.132s-9.132-4.088-9.132-9.132v-20.49
	c-5.561-0.483-10.751-1.375-15.524-2.51v23.001c0,5.043-4.088,9.132-9.132,9.132s-9.131-4.088-9.131-9.132V36.035
	c-9.887-4.305-15.524-8.535-15.524-8.535v58.442c0,14.599-14.61,23.377-14.61,23.377h42.005l-30.069,4.245
	c2.182,4.979,7.61,9.617,11.808,12.645c1.228,0.886,2.785,1.416,4.435,1.501l28.436,1.479l-29.068,2.599
	c-1.296,0.116-2.529,0.507-3.572,1.133l-9.365,5.619l31.047,1.607l-28.527,2.42c5.759,10.241,15.889,29.167,15.889,89.479
	c0,83.141-33.019,111.039-33.019,111.039l-1.193,1.473c15.813,8.087,33.751,13.847,52.329,15.919
	c-5.802-0.219-11.601-0.79-17.342-1.686c-15.483-2.641-30.34-7.142-44.019-13.561c-1.944-0.912-4.386,0.209-4.386,2.012v10.237
	c18.166,12.436,42.406,18.105,65.747,20.831c-6.086-0.319-12.198-0.697-18.25-1.495c-17.331-2.216-34.555-6.294-49.211-14.277
	L146.575,381.071z M243.368,274.489c0-5.043,4.088-9.132,9.132-9.132s9.132,4.088,9.132,9.132V297.5h-18.263V274.489z
	 M243.368,189.748c0-5.043,4.088-9.132,9.132-9.132s9.132,4.088,9.132,9.132v23.011h-18.263V189.748z"></path>
</svg><style>@media (prefers-color-scheme: light) { :root { filter: none; } }
@media (prefers-color-scheme: dark) { :root { filter: none; } }
</style></svg>